<svg width="24" height="24" viewBox="0 0 24 24" fill="none" xmlns="http://www.w3.org/2000/svg">
<path d="M7.48794 18.4512C7.48794 18.9126 7.62476 19.3636 7.88109 19.7472C8.13742 20.1308 8.50175 20.4299 8.92802 20.6064C9.35428 20.783 9.82333 20.8292 10.2758 20.7392C10.7284 20.6492 11.144 20.427 11.4703 20.1007C11.7965 19.7745 12.0187 19.3588 12.1087 18.9063C12.1987 18.4538 12.1525 17.9847 11.976 17.5585C11.7994 17.1322 11.5004 16.7679 11.1168 16.5115C10.7331 16.2552 10.2821 16.1184 9.82074 16.1184C9.20224 16.119 8.60925 16.365 8.1719 16.8024C7.73456 17.2397 7.48858 17.8327 7.48794 18.4512V18.4512ZM10.7135 18.4512C10.7135 18.6278 10.6612 18.8004 10.5631 18.9472C10.465 19.094 10.3255 19.2085 10.1624 19.276C9.99926 19.3436 9.81975 19.3613 9.64656 19.3268C9.47338 19.2924 9.3143 19.2074 9.18944 19.0825C9.06458 18.9576 8.97954 18.7986 8.9451 18.6254C8.91065 18.4522 8.92833 18.2727 8.9959 18.1095C9.06348 17.9464 9.17791 17.807 9.32473 17.7089C9.47155 17.6108 9.64416 17.5584 9.82074 17.5584C10.0575 17.5584 10.2846 17.6525 10.452 17.8199C10.6195 17.9873 10.7135 18.2144 10.7135 18.4512Z" fill="#00240F"/>
<path d="M16.6274 16.1184C16.166 16.1184 15.715 16.2552 15.3313 16.5115C14.9477 16.7679 14.6487 17.1322 14.4721 17.5585C14.2956 17.9847 14.2494 18.4538 14.3394 18.9063C14.4294 19.3588 14.6516 19.7745 14.9778 20.1007C15.3041 20.427 15.7197 20.6492 16.1723 20.7392C16.6248 20.8292 17.0938 20.783 17.5201 20.6064C17.9464 20.4299 18.3107 20.1308 18.567 19.7472C18.8234 19.3636 18.9602 18.9126 18.9602 18.4512C18.9595 17.8327 18.7136 17.2397 18.2762 16.8024C17.8389 16.365 17.2459 16.119 16.6274 16.1184V16.1184ZM16.6274 19.344C16.4508 19.344 16.2782 19.2916 16.1314 19.1935C15.9845 19.0954 15.8701 18.956 15.8025 18.7928C15.735 18.6297 15.7173 18.4502 15.7517 18.277C15.7862 18.1038 15.8712 17.9447 15.9961 17.8199C16.1209 17.695 16.28 17.61 16.4532 17.5755C16.6264 17.5411 16.8059 17.5588 16.969 17.6263C17.1322 17.6939 17.2716 17.8084 17.3697 17.9552C17.4678 18.102 17.5202 18.2746 17.5202 18.4512C17.5195 18.6876 17.4252 18.914 17.2578 19.0809C17.0905 19.2479 16.8637 19.3416 16.6274 19.3416V19.344Z" fill="#00240F"/>
<path d="M20.7936 8.34241C20.8177 8.23701 20.8178 8.12752 20.7939 8.02208C20.7699 7.91664 20.7225 7.81795 20.6552 7.73333C20.5879 7.64871 20.5024 7.58035 20.405 7.53331C20.3076 7.48627 20.2009 7.46176 20.0928 7.46161H7.9968L7.7784 6.37201C7.63009 5.61144 7.25374 4.91404 6.69941 4.37257C6.14508 3.83111 5.43904 3.47123 4.6752 3.34081L4.0344 3.22801C3.93932 3.20752 3.84108 3.2065 3.74559 3.22501C3.65011 3.24353 3.55937 3.2812 3.47885 3.33575C3.39833 3.3903 3.32969 3.4606 3.27708 3.5424C3.22448 3.62421 3.18899 3.71583 3.17276 3.81172C3.15654 3.90762 3.15991 4.00581 3.18267 4.10037C3.20544 4.19493 3.24713 4.2839 3.30522 4.3619C3.36331 4.43991 3.43661 4.50533 3.52068 4.55423C3.60476 4.60313 3.69787 4.63449 3.7944 4.64641L4.4352 4.75921C4.91239 4.8408 5.35347 5.06564 5.69984 5.40387C6.04621 5.74209 6.28148 6.17769 6.3744 6.65281L7.6416 12.9936C7.80449 13.8086 8.24436 14.5421 8.88655 15.0697C9.52874 15.5973 10.3337 15.8864 11.1648 15.888H16.188C17.0027 15.8907 17.794 15.6157 18.4314 15.1083C19.0689 14.6009 19.5143 13.8914 19.6944 13.0968L20.7936 8.34241ZM18.2928 12.7728C18.1841 13.2498 17.9166 13.6758 17.5343 13.981C17.1519 14.2862 16.6772 14.4525 16.188 14.4528H11.1648C10.6658 14.4532 10.182 14.2809 9.79565 13.965C9.40933 13.6491 9.14429 13.2092 9.0456 12.72L8.2848 8.89921H19.1856L18.2928 12.7728Z" fill="#00240F"/>
</svg>
