<svg width="109" height="20" viewBox="0 0 109 20" fill="none" xmlns="http://www.w3.org/2000/svg">
<path d="M4.74663 2.57011C6.8097 2.57011 8.40742 3.01462 9.53979 3.90365C10.6877 4.79269 11.2616 6.12623 11.2616 7.90429C11.2616 9.76318 10.6877 11.1614 9.53979 12.0989C8.39191 13.0203 6.864 13.4809 4.95604 13.4809H3.07135V19.3243H0V2.57011H4.74663ZM4.72336 11.0806C5.8247 11.0806 6.65459 10.8462 7.21301 10.3774C7.77144 9.89249 8.05065 9.06812 8.05065 7.90429C8.05065 5.9161 6.94155 4.922 4.72336 4.922H3.07135V11.0806H4.72336Z" fill="#00240F"/>
<path d="M16.6323 6.49801V19.3243H13.654V6.49801H16.6323ZM15.1199 0C15.6783 0 16.1281 0.185888 16.4694 0.557665C16.8262 0.913278 17.0046 1.35779 17.0046 1.89121C17.0046 2.42463 16.8262 2.86915 16.4694 3.22476C16.1281 3.58037 15.6783 3.75818 15.1199 3.75818C14.577 3.75818 14.1271 3.58037 13.7703 3.22476C13.4291 2.86915 13.2585 2.42463 13.2585 1.89121C13.2585 1.35779 13.4291 0.913278 13.7703 0.557665C14.1271 0.185888 14.577 0 15.1199 0Z" fill="#00240F"/>
<path d="M28.2249 6.49801V8.72867L22.2684 16.8997H28.3412L28.0388 19.3243H18.848V17.0936L24.8278 8.92264H19.3599V6.49801H28.2249Z" fill="#00240F"/>
<path d="M38.6772 6.49801V8.72867L32.7207 16.8997H38.7936L38.4911 19.3243H29.3003V17.0936L35.2801 8.92264H29.8122V6.49801H38.6772Z" fill="#00240F"/>
<path d="M49.8823 15.9298C49.8823 16.4309 49.9521 16.8027 50.0917 17.0452C50.2468 17.2715 50.4873 17.4493 50.813 17.5786L50.1848 19.6395C49.4868 19.5748 48.9128 19.397 48.463 19.1061C48.0286 18.8151 47.6951 18.3706 47.4625 17.7725C47.0436 18.4191 46.5162 18.904 45.8802 19.2273C45.2598 19.5344 44.5617 19.688 43.7861 19.688C42.5607 19.688 41.5912 19.3243 40.8777 18.5969C40.1641 17.8695 39.8074 16.9158 39.8074 15.7358C39.8074 14.3457 40.2882 13.287 41.25 12.5596C42.2272 11.816 43.6155 11.4443 45.4149 11.4443H46.9506V10.7169C46.9506 9.89249 46.7644 9.31866 46.3921 8.99538C46.0354 8.65593 45.4537 8.48621 44.6471 8.48621C43.7474 8.48621 42.6615 8.7125 41.3896 9.1651L40.6915 7.05567C42.2272 6.44143 43.7163 6.13431 45.1589 6.13431C48.3078 6.13431 49.8823 7.60526 49.8823 10.5471V15.9298ZM44.5772 17.4331C45.5855 17.4331 46.3766 16.9078 46.9506 15.8571V13.2627H45.7174C43.7939 13.2627 42.8322 14.0063 42.8322 15.4934C42.8322 16.1076 42.9795 16.5845 43.2743 16.9239C43.569 17.2634 44.0033 17.4331 44.5772 17.4331Z" fill="#00240F"/>
<path d="M69.7274 2.57011L69.4016 5.11597H65.2134V19.3243H62.1188V5.11597H57.791V2.57011H69.7274Z" fill="#00240F"/>
<path d="M74.62 6.49801V19.3243H71.6417V6.49801H74.62ZM73.1075 0C73.666 0 74.1158 0.185888 74.4571 0.557665C74.8138 0.913278 74.9922 1.35779 74.9922 1.89121C74.9922 2.42463 74.8138 2.86915 74.4571 3.22476C74.1158 3.58037 73.666 3.75818 73.1075 3.75818C72.5646 3.75818 72.1148 3.58037 71.758 3.22476C71.4168 2.86915 71.2461 2.42463 71.2461 1.89121C71.2461 1.35779 71.4168 0.913278 71.758 0.557665C72.1148 0.185888 72.5646 0 73.1075 0Z" fill="#00240F"/>
<path d="M91.2617 6.13431C92.2544 6.13431 93.0455 6.48993 93.635 7.20115C94.2244 7.89621 94.5192 8.84182 94.5192 10.038V19.3243H91.5409V10.5229C91.5409 9.14894 91.0911 8.46196 90.1914 8.46196C89.7105 8.46196 89.2917 8.6236 88.9349 8.94689C88.5936 9.25401 88.2369 9.73893 87.8646 10.4017V19.3243H84.8863V10.5229C84.8863 9.14894 84.4365 8.46196 83.5368 8.46196C83.0404 8.46196 82.6138 8.6236 82.257 8.94689C81.9158 9.25401 81.559 9.73893 81.1867 10.4017V19.3243H78.2085V6.49801H80.7912L81.0239 8.171C81.9546 6.81321 83.1412 6.13431 84.5838 6.13431C85.2974 6.13431 85.9101 6.32829 86.422 6.71623C86.9494 7.088 87.3294 7.61334 87.5621 8.29224C88.0585 7.59717 88.6014 7.06376 89.1909 6.69198C89.7958 6.3202 90.4861 6.13431 91.2617 6.13431Z" fill="#00240F"/>
<path d="M108.075 12.6081C108.075 12.7697 108.052 13.19 108.005 13.8689H100.28C100.374 15.1135 100.684 16.0026 101.211 16.536C101.739 17.0694 102.437 17.3361 103.305 17.3361C103.848 17.3361 104.36 17.2472 104.841 17.0694C105.322 16.8754 105.834 16.5845 106.377 16.1965L107.61 17.9665C106.245 19.1142 104.725 19.688 103.049 19.688C101.172 19.688 99.7221 19.0899 98.6983 17.8938C97.69 16.6976 97.1859 15.065 97.1859 12.996C97.1859 11.6867 97.403 10.5148 97.8374 9.4803C98.2717 8.42963 98.8999 7.61334 99.7221 7.03143C100.544 6.43335 101.521 6.13431 102.654 6.13431C104.376 6.13431 105.71 6.70814 106.656 7.8558C107.602 8.9873 108.075 10.5714 108.075 12.6081ZM105.12 11.711C105.12 9.46414 104.321 8.34073 102.724 8.34073C101.995 8.34073 101.421 8.6236 101.002 9.18935C100.598 9.73893 100.358 10.628 100.28 11.8564H105.12V11.711Z" fill="#00240F"/>
</svg>
