<svg width="56" height="56" viewBox="0 0 56 56" fill="none" xmlns="http://www.w3.org/2000/svg">
<path d="M41.2729 40.4444L28.6139 27.7003L41.2729 14.9561C41.4186 14.8094 41.5004 14.6105 41.5004 14.4031C41.5004 14.1957 41.4186 13.9968 41.2729 13.8501C38.5519 11.1108 35.0852 9.24539 31.311 8.48963C27.5369 7.73387 23.6249 8.12176 20.0698 9.60424C16.5146 11.0867 13.476 13.5972 11.3381 16.8183C9.2002 20.0393 8.05908 23.8263 8.05903 27.7002C8.05899 31.5742 9.20005 35.3612 11.3379 38.5823C13.4758 41.8034 16.5144 44.3139 20.0696 45.7964C23.6248 47.2789 27.5368 47.6668 31.311 46.911C35.0851 46.1552 38.5519 44.2897 41.2729 41.5504C41.4185 41.4037 41.5004 41.2048 41.5004 40.9974C41.5004 40.79 41.4185 40.5911 41.2729 40.4444ZM33.0012 34.3291L31.6986 34.3291C31.4925 34.3292 31.2949 34.4116 31.1493 34.5583C31.0036 34.705 30.9218 34.9039 30.9218 35.1114C30.9218 35.3188 31.0037 35.5177 31.1494 35.6644C31.2952 35.811 31.4928 35.8934 31.6988 35.8934L33.6275 35.8934C33.7475 35.8934 33.8659 35.8653 33.9733 35.8113C34.0807 35.7574 34.1742 35.6791 34.2464 35.5826L37.1662 38.522C36.9301 38.6103 36.6681 38.6841 36.3987 38.7599C35.9363 38.8737 35.4866 39.0342 35.0564 39.2392C34.6167 38.7344 34.0353 38.3759 33.389 38.2109C32.7426 38.0459 32.0617 38.0822 31.4363 38.3151C30.8109 38.548 30.2704 38.9665 29.8862 39.5152C29.5021 40.0639 29.2924 40.7171 29.2848 41.3883C29.2067 41.3916 29.1285 41.3969 29.0499 41.4058C28.4566 41.4727 27.912 41.7045 27.3857 41.9284L27.2157 42.0005C26.7317 42.2045 26.2651 42.3838 25.8763 42.3397C25.4512 42.2918 24.9894 41.9577 24.5002 41.6042C24.0352 41.2678 23.5544 40.9199 22.9883 40.7209C22.4335 40.5258 21.85 40.4982 21.2852 40.4709C20.677 40.4418 20.1027 40.4141 19.7281 40.1771C19.3775 39.9544 19.1089 39.4578 18.8245 38.9315C18.5474 38.4185 18.2608 37.8882 17.8279 37.4523C17.3949 37.0164 16.8681 36.7279 16.3586 36.449C15.8358 36.1627 15.3423 35.8922 15.1213 35.5393C14.8856 35.1624 14.8586 34.5836 14.8293 33.9715C14.8026 33.4032 14.7749 32.8156 14.5812 32.2571C14.3835 31.6872 14.038 31.2031 13.7038 30.735C13.3522 30.2428 13.0205 29.7778 12.973 29.3495C12.9296 28.9586 13.1077 28.4888 13.3102 28.0016L13.3824 27.8292C13.6048 27.2993 13.8349 26.7515 13.9012 26.1545C13.9672 25.5614 13.8636 24.9785 13.7634 24.4148C13.6567 23.8142 13.5559 23.247 13.6995 22.8327C13.8388 22.4311 14.2636 22.0538 14.7134 21.6545C15.1444 21.2717 15.5901 20.8759 15.9118 20.3616C16.2222 19.8654 16.3783 19.3018 16.5294 18.7567C16.6939 18.1636 16.8491 17.6034 17.1676 17.2827C17.4861 16.9621 18.0426 16.8058 18.6318 16.6402C19.1732 16.4881 19.733 16.3309 20.2259 16.0184C20.7368 15.6946 21.1303 15.2462 21.5102 14.8121C21.9069 14.3591 22.2817 13.9315 22.6807 13.7913C23.0925 13.6466 23.656 13.7481 24.2527 13.8556C24.8121 13.956 25.3913 14.0607 25.9805 13.9943C26.5739 13.9274 27.1184 13.6956 27.6448 13.4717L27.8148 13.3996C28.2988 13.1957 28.7657 13.016 29.1542 13.0604C29.5793 13.1083 30.0411 13.4424 30.5302 13.7959C30.9953 14.1323 31.4761 14.4802 32.0422 14.6792C32.597 14.8743 33.1804 14.9019 33.7452 14.9292C34.0501 14.9377 34.3543 14.9632 34.6564 15.0056C33.9045 16.342 33.9366 18.0327 34.7627 19.2982L26.966 27.1473C26.8203 27.294 26.7385 27.4929 26.7385 27.7003C26.7385 27.9077 26.8203 28.1066 26.966 28.2532L33.0012 34.3291ZM33.5198 40.5882C33.123 41.0411 32.7482 41.4687 32.3493 41.609C31.9532 41.7482 31.4169 41.6596 30.8457 41.557C30.8178 41.1959 30.9019 40.835 31.0864 40.5241C31.271 40.2132 31.5469 39.9677 31.8761 39.8215C32.2052 39.6753 32.5714 39.6355 32.9239 39.7079C33.2764 39.7802 33.598 39.9609 33.844 40.2251C33.7338 40.345 33.6264 40.467 33.52 40.5884L33.5198 40.5882ZM35.8987 18.1545C35.7394 17.8085 35.6583 17.4312 35.6611 17.0497C35.6639 16.6683 35.7506 16.2923 35.9149 15.9486C36.0129 16.1126 36.1082 16.2887 36.2056 16.4691C36.3625 16.7596 36.5235 17.0551 36.7114 17.3364L35.8987 18.1545ZM27.5153 45.7232C24.6041 45.7232 21.7368 45.0084 19.162 43.6409C16.5871 42.2733 14.3824 40.2943 12.7389 37.8752C11.0954 35.4561 10.0626 32.6701 9.73018 29.7585C9.39773 26.8469 9.77561 23.8976 10.8311 21.1662C11.8865 18.4348 13.5877 16.0037 15.7871 14.0837C17.9866 12.1636 20.618 10.8126 23.4532 10.1475C26.2885 9.48248 29.2421 9.52356 32.058 10.2672C34.874 11.0108 37.4673 12.4346 39.6132 14.4151L37.8377 16.2025C37.7481 16.0498 37.6604 15.8875 37.5706 15.7215C37.2206 15.0736 36.8238 14.3397 36.1299 13.8995C35.4098 13.4431 34.5645 13.4027 33.8188 13.3671C33.3442 13.3444 32.896 13.3229 32.554 13.2027C32.2002 13.0783 31.8293 12.81 31.4368 12.5259C30.8365 12.0915 30.1561 11.5993 29.3272 11.5058C28.5692 11.4201 27.868 11.6819 27.2155 11.9569L27.0401 12.0311C26.5962 12.2201 26.1766 12.3986 25.8076 12.4402C25.4428 12.4812 24.9976 12.4012 24.5263 12.3162C23.7945 12.1843 22.9653 12.0353 22.1685 12.3149C21.3857 12.59 20.8329 13.221 20.3449 13.7775C20.0231 14.1448 19.7196 14.4912 19.398 14.6951C19.097 14.8858 18.6682 15.0063 18.2141 15.1338C17.4931 15.3364 16.6757 15.566 16.0689 16.1769C15.4621 16.7878 15.234 17.6106 15.0328 18.3365C14.9062 18.7936 14.7865 19.2253 14.5966 19.5287C14.3942 19.8525 14.0498 20.1583 13.6852 20.4819C13.1323 20.973 12.5055 21.5295 12.2324 22.3177C11.9545 23.1194 12.1028 23.9542 12.2338 24.6908C12.3181 25.1654 12.3977 25.6136 12.3569 25.9811C12.3155 26.3523 12.1385 26.7742 11.951 27.2208L11.8766 27.3988C11.6034 28.0559 11.3439 28.7615 11.4287 29.5242C11.5216 30.3588 12.0106 31.0438 12.442 31.6482C12.7241 32.0434 12.9906 32.4168 13.1142 32.7731C13.2335 33.1171 13.2547 33.5684 13.2775 34.0463C13.3129 34.7972 13.3531 35.6482 13.8064 36.3732C14.2437 37.0724 14.9729 37.4713 15.6162 37.8236C16.0477 38.0598 16.4551 38.283 16.7292 38.5589C17.0033 38.8348 17.2249 39.245 17.4597 39.6794C17.7216 40.1643 18.0096 40.6973 18.4287 41.1192C18.5712 41.2639 18.7295 41.3922 18.9004 41.5014C19.6206 41.9578 20.4658 41.9983 21.2116 42.0339C21.6861 42.0565 22.1344 42.0781 22.4763 42.1983C22.8302 42.3227 23.2011 42.591 23.5936 42.875C24.1939 43.3094 24.8742 43.8017 25.7031 43.8951C26.4611 43.9808 27.1623 43.7191 27.8149 43.4441L27.9902 43.3699C28.4342 43.1809 28.8537 43.0024 29.2227 42.9607C29.5877 42.9196 30.0328 42.9998 30.5042 43.0847C31.236 43.2166 32.0651 43.3658 32.8618 43.086C33.6447 42.8109 34.1975 42.1798 34.6854 41.6234C35.0072 41.2562 35.3107 40.9097 35.6324 40.7059C35.9334 40.5151 36.3622 40.3946 36.8165 40.2668C37.3104 40.128 37.8494 39.9765 38.3349 39.6986L39.6132 40.9855C36.3181 44.0438 31.997 45.736 27.5153 45.7232Z" fill="#EC0000"/>
<path d="M26.2308 18.2285C25.7952 17.79 25.2403 17.4914 24.6362 17.3705C24.0321 17.2495 23.4059 17.3116 22.8368 17.5489C22.2678 17.7862 21.7814 18.188 21.4392 18.7036C21.097 19.2192 20.9143 19.8254 20.9143 20.4455C20.9143 21.0655 21.097 21.6717 21.4392 22.1873C21.7814 22.7029 22.2678 23.1047 22.8368 23.342C23.4059 23.5793 24.0321 23.6414 24.6362 23.5204C25.2403 23.3995 25.7952 23.1009 26.2308 22.6624C26.8139 22.074 27.1415 21.2767 27.1415 20.4455C27.1415 19.6142 26.8139 18.8169 26.2308 18.2285ZM22.925 21.5565C22.7068 21.3367 22.5581 21.0568 22.4979 20.752C22.4377 20.4472 22.4686 20.1313 22.5867 19.8442C22.7049 19.5571 22.9049 19.3117 23.1615 19.1391C23.4182 18.9664 23.7199 18.8743 24.0286 18.8743C24.3373 18.8743 24.639 18.9664 24.8957 19.1391C25.1523 19.3117 25.3524 19.5571 25.4705 19.8442C25.5886 20.1313 25.6195 20.4472 25.5593 20.752C25.4991 21.0568 25.3505 21.3367 25.1322 21.5565C24.8393 21.8507 24.4424 22.0159 24.0286 22.0159C23.6148 22.0159 23.218 21.8507 22.925 21.5565Z" fill="#05A84B"/>
<path d="M19.9911 28.2307C19.6824 27.9199 19.289 27.7082 18.8608 27.6224C18.4326 27.5367 17.9887 27.5807 17.5853 27.7489C17.1819 27.9171 16.8371 28.2019 16.5945 28.5674C16.3519 28.9328 16.2224 29.3625 16.2224 29.8021C16.2224 30.2416 16.3518 30.6713 16.5943 31.0368C16.8369 31.4023 17.1816 31.6872 17.585 31.8555C17.9884 32.0237 18.4322 32.0678 18.8605 31.9821C19.2887 31.8964 19.6821 31.6848 19.9909 31.374C20.4044 30.9569 20.6366 30.3917 20.6367 29.8024C20.6367 29.2131 20.4046 28.6479 19.9911 28.2307ZM17.874 30.362C17.7641 30.2513 17.6892 30.1103 17.6589 29.9568C17.6285 29.8032 17.6441 29.6441 17.7036 29.4995C17.7631 29.3548 17.8639 29.2312 17.9932 29.1443C18.1225 29.0573 18.2745 29.0109 18.43 29.0109C18.5855 29.0109 18.7375 29.0573 18.8668 29.1443C18.9961 29.2313 19.0968 29.3549 19.1563 29.4995C19.2158 29.6442 19.2314 29.8033 19.201 29.9568C19.1707 30.1104 19.0958 30.2514 18.9858 30.3621C18.8382 30.5102 18.6383 30.5933 18.43 30.5933C18.2216 30.5932 18.0217 30.51 17.8742 30.3618L17.874 30.362Z" fill="#05A84B"/>
<path d="M24.9006 39.1433C25.1784 39.4229 25.5322 39.6134 25.9175 39.6905C26.3027 39.7677 26.7021 39.7281 27.065 39.5767C27.4279 39.4254 27.7381 39.1691 27.9563 38.8403C28.1745 38.5115 28.291 38.125 28.291 37.7295C28.291 37.3341 28.1745 36.9475 27.9563 36.6187C27.7381 36.2899 27.4279 36.0336 27.065 35.8823C26.7021 35.731 26.3028 35.6914 25.9175 35.7685C25.5322 35.8457 25.1784 36.0361 24.9006 36.3157C24.5287 36.691 24.3198 37.1994 24.3198 37.7295C24.3198 38.2596 24.5287 38.7681 24.9006 39.1433ZM26.8052 37.2259C26.9041 37.3255 26.9714 37.4524 26.9987 37.5905C27.026 37.7286 27.012 37.8718 26.9585 38.0019C26.9049 38.132 26.8143 38.2432 26.698 38.3214C26.5817 38.3997 26.4449 38.4414 26.305 38.4414C26.1651 38.4414 26.0284 38.3996 25.9121 38.3214C25.7958 38.2432 25.7051 38.1319 25.6516 38.0018C25.5981 37.8717 25.5841 37.7285 25.6114 37.5904C25.6387 37.4523 25.7061 37.3254 25.805 37.2259C25.9378 37.0926 26.1176 37.0179 26.3051 37.0179C26.4925 37.0179 26.6723 37.0928 26.805 37.2261L26.8052 37.2259Z" fill="#05A84B"/>
<path d="M24.1041 31.2965C24.1041 31.3992 24.1242 31.501 24.1632 31.5959C24.2023 31.6908 24.2595 31.777 24.3317 31.8497C24.4038 31.9223 24.4895 31.98 24.5838 32.0193C24.6781 32.0586 24.7791 32.0789 24.8812 32.0789C24.9832 32.0789 25.0843 32.0587 25.1785 32.0194C25.2728 31.98 25.3585 31.9224 25.4307 31.8498C25.5028 31.7771 25.5601 31.6909 25.5991 31.596C25.6382 31.5011 25.6583 31.3994 25.6583 31.2966L25.6583 29.3542C25.6583 29.1467 25.5765 28.9477 25.4307 28.8009C25.285 28.6542 25.0873 28.5718 24.8812 28.5718C24.6751 28.5718 24.4774 28.6542 24.3317 28.8009C24.1859 28.9476 24.1041 29.1466 24.1041 29.3541L24.1041 31.2965Z" fill="#EC0000"/>
<path d="M28.8861 18.6363C28.8861 18.8437 28.968 19.0427 29.1137 19.1895C29.2595 19.3362 29.4571 19.4186 29.6632 19.4186C29.8693 19.4187 30.067 19.3362 30.2128 19.1895C30.3585 19.0428 30.4404 18.8438 30.4404 18.6363L30.4403 16.6939C30.4403 16.4864 30.3585 16.2874 30.2128 16.1407C30.067 15.994 29.8694 15.9115 29.6633 15.9115C29.4572 15.9115 29.2595 15.9939 29.1138 16.1406C28.968 16.2873 28.8861 16.4863 28.8861 16.6938L28.8861 18.6363Z" fill="#EC0000"/>
<path d="M18.0701 22.772C18.0701 22.5645 17.9882 22.3655 17.8425 22.2188C17.6968 22.072 17.4991 21.9896 17.293 21.9896C17.0869 21.9896 16.8892 22.072 16.7435 22.2187C16.5977 22.3654 16.5158 22.5644 16.5158 22.7719L16.5158 24.7142C16.5158 24.9217 16.5977 25.1207 16.7434 25.2675C16.8891 25.4142 17.0868 25.4966 17.2929 25.4966C17.499 25.4967 17.6966 25.4143 17.8424 25.2676C17.9881 25.1208 18.07 24.9219 18.07 24.7144L18.0701 22.772Z" fill="#EC0000"/>
<path d="M21.4782 35.4444C21.4782 35.3416 21.4581 35.2399 21.4191 35.145C21.3801 35.05 21.3228 34.9638 21.2507 34.8911C21.1785 34.8185 21.0929 34.7609 20.9986 34.7215C20.9043 34.6822 20.8033 34.662 20.7012 34.662C20.5992 34.6619 20.4981 34.6822 20.4038 34.7215C20.3095 34.7608 20.2239 34.8184 20.1517 34.891C20.0795 34.9637 20.0223 35.0499 19.9832 35.1448C19.9442 35.2397 19.924 35.3415 19.924 35.4442L19.9238 37.3865C19.9238 37.594 20.0057 37.793 20.1514 37.9397C20.2972 38.0864 20.4948 38.1689 20.7009 38.1689C20.907 38.1689 21.1047 38.0865 21.2505 37.9397C21.3962 37.793 21.4781 37.594 21.4781 37.3865L21.4782 35.4444Z" fill="#EC0000"/>
</svg>
